<?xml version="1.0" standalone="no"?>
<!DOCTYPE svg PUBLIC "-//W3C//DTD SVG 20010904//EN"
 "http://www.w3.org/TR/2001/REC-SVG-20010904/DTD/svg10.dtd">
<svg version="1.0" xmlns="http://www.w3.org/2000/svg"
 width="700.000000pt" height="700.000000pt" viewBox="0 0 700.000000 700.000000"
 preserveAspectRatio="xMidYMid meet">
<metadata>
Created by potrace 1.14, written by Peter Selinger 2001-2017
</metadata>
<g transform="translate(0.000000,700.000000) scale(0.100000,-0.100000)"
fill="#000000" stroke="none">
<path d="M0 6250 c0 -412 1 -750 3 -750 1 0 18 5 37 10 64 19 221 13 290 -10
93 -31 270 -151 270 -183 0 -5 17 -28 38 -52 66 -75 122 -250 122 -380 0 -130
-41 -232 -140 -352 -128 -155 -319 -243 -527 -243 l-93 0 0 -893 0 -893 48
-13 c26 -6 61 -19 78 -28 16 -8 55 -29 87 -46 66 -34 176 -137 224 -211 42
-64 71 -141 83 -224 21 -153 -60 -365 -191 -492 -55 -54 -204 -144 -276 -167
l-53 -17 0 -653 0 -653 1239 0 1239 0 -34 68 c-46 91 -64 169 -64 279 0 116
24 193 89 288 93 137 224 213 381 222 163 10 280 -35 396 -151 113 -115 161
-239 151 -395 -6 -102 -31 -176 -88 -255 l-40 -56 1865 0 1866 0 0 1816 c0
1724 -1 1815 -17 1810 -121 -34 -301 -39 -403 -12 -36 10 -71 19 -79 20 -34 6
-234 151 -255 185 -121 192 -145 251 -158 381 -18 191 4 326 78 470 85 167
222 280 409 336 64 20 283 26 378 12 l47 -8 0 995 0 995 -2400 0 c-1320 0
-2400 -2 -2400 -4 0 -2 21 -18 48 -35 48 -31 99 -97 126 -163 62 -149 -2 -324
-145 -396 -163 -82 -316 -51 -405 83 -46 68 -64 131 -64 220 0 112 45 190 155
272 l30 22 -972 1 -973 0 0 -750z m4098 704 c29 -12 55 -30 58 -38 3 -8 16
-17 29 -20 26 -7 88 -88 117 -152 29 -67 38 -135 27 -204 -43 -270 -371 -405
-580 -239 -83 65 -139 196 -141 325 -2 160 117 300 295 349 64 17 125 11 195
-21z m-3257 -22 c98 -35 119 -49 119 -83 0 -39 -22 -80 -60 -113 -31 -26 -31
-26 -7 -26 27 0 71 31 87 60 6 12 6 29 -1 50 -14 38 -8 45 23 30 27 -15 138
-121 138 -133 0 -5 16 -33 36 -63 20 -30 47 -87 59 -127 80 -252 1 -479 -223
-646 -125 -92 -248 -131 -416 -131 -140 0 -245 42 -350 141 -74 69 -116 135
-152 241 -29 86 -44 218 -24 218 10 0 10 3 0 15 -24 29 10 190 62 287 54 102
198 230 307 274 96 38 300 41 402 6z m5160 -115 c184 -67 332 -218 374 -383
22 -87 15 -240 -14 -317 -22 -57 -73 -137 -122 -195 -36 -41 -132 -105 -207
-136 -149 -63 -253 -71 -379 -31 -223 70 -365 235 -382 443 -4 40 -5 75 -2 78
2 2 5 39 5 82 1 70 5 85 44 166 70 142 208 263 343 301 73 20 275 15 340 -8z
m-961 -25 c-9 -3 -9 -6 0 -12 9 -6 3 -13 -19 -24 -27 -15 -31 -15 -31 -1 0 8
-9 15 -20 15 -13 0 -20 7 -20 18 0 26 10 33 31 21 15 -7 21 -6 25 6 6 14 9 14
26 -2 13 -11 15 -19 8 -21z m1625 8 c17 -18 16 -20 -6 -48 -23 -27 -25 -28
-51 -13 -36 20 -36 46 0 65 35 20 36 20 57 -4z m-3712 -330 c21 -25 22 -40 2
-40 -7 0 -18 -7 -22 -15 -8 -13 -11 -13 -31 1 -26 18 -28 31 -5 56 21 23 34
23 56 -2z m357 -291 c-12 -21 -30 -17 -30 6 0 14 20 25 33 18 4 -2 2 -13 -3
-24z m1482 -65 c29 -6 29 -6 10 -20 -11 -8 -30 -30 -43 -50 l-22 -36 -16 21
c-9 12 -29 30 -44 40 l-28 18 35 21 c21 12 36 29 36 40 0 33 14 34 29 3 9 -20
24 -32 43 -37z m-2064 -209 c34 -15 62 -32 62 -36 0 -5 4 -8 9 -6 5 1 41 -23
79 -54 70 -57 111 -115 159 -224 38 -86 28 -251 -18 -301 -11 -11 -17 -23 -13
-26 16 -17 -79 -159 -130 -195 -159 -113 -272 -142 -427 -109 -238 51 -393
269 -376 529 13 196 138 360 331 434 52 20 75 23 161 20 84 -3 110 -8 163 -32z
m3982 -62 c1 -17 1 -17 11 0 5 9 17 17 24 17 16 0 20 -27 7 -48 -5 -7 -16 -10
-25 -6 -13 5 -16 2 -11 -10 6 -17 -4 -20 -30 -10 -15 6 -14 40 1 67 8 14 23 7
23 -10z m-5005 -73 c16 0 16 -3 -5 -25 -29 -30 -41 -31 -66 -4 -19 21 -18 21
6 41 22 18 25 18 36 4 6 -9 19 -16 29 -16z m1884 -71 c12 -38 32 -51 101 -65
l34 -6 -39 -20 c-52 -27 -85 -57 -85 -80 0 -32 -52 -22 -75 15 -11 17 -40 43
-64 56 l-43 24 48 16 c43 14 52 22 73 64 26 52 32 52 50 -4z m875 -75 c24 -9
19 -31 -10 -50 -34 -23 -53 -6 -36 31 12 26 20 29 46 19z m1850 -170 c15 -6
15 -8 -1 -20 -25 -19 -33 -17 -33 6 0 21 8 24 34 14z m-4832 -286 c11 -10 26
-18 33 -18 8 0 26 -5 41 -11 l28 -10 -44 -25 c-67 -38 -80 -53 -80 -91 0 -45
-25 -42 -57 6 -13 19 -45 47 -72 63 -27 15 -52 32 -55 37 -4 5 17 17 45 26 32
11 54 25 59 39 5 11 17 39 25 61 l17 40 19 -50 c11 -27 29 -58 41 -67z m3167
-116 c16 -21 35 -50 42 -65 14 -32 84 -111 229 -260 l105 -108 -83 -163 c-95
-186 -256 -438 -399 -623 -54 -71 -89 -124 -78 -119 71 27 115 37 129 29 13
-7 -2 -31 -81 -133 -194 -251 -438 -524 -704 -786 l-164 -162 -57 5 -58 5 -46
-51 c-61 -68 -294 -271 -600 -523 l-80 -67 -110 91 c-137 113 -344 317 -344
339 0 49 790 699 1108 910 149 100 180 147 147 225 -30 73 -93 120 -146 109
-28 -6 -155 -95 -209 -146 -14 -13 -75 -66 -135 -118 -173 -148 -409 -368
-540 -502 -169 -175 -325 -350 -325 -366 0 -28 -21 -10 -97 84 -102 127 -163
219 -163 246 0 30 314 439 447 580 34 37 63 72 63 79 0 6 -8 16 -17 23 -16 12
-14 17 20 58 62 76 335 346 457 454 257 225 582 469 803 603 136 82 443 242
567 295 99 43 248 94 272 95 9 0 30 -17 47 -38z m-2655 -511 c3 -4 -3 -16 -13
-25 -22 -20 -40 -4 -21 19 14 17 26 19 34 6z m861 -39 l32 -29 -44 -23 c-43
-23 -44 -23 -58 -4 -21 27 -18 49 8 67 29 21 24 21 62 -11z m-864 -202 c25 0
24 -22 -2 -46 -17 -15 -22 -16 -29 -4 -7 11 -11 11 -24 1 -14 -12 -16 -9 -16
23 0 29 5 38 23 45 16 6 23 5 25 -5 2 -8 12 -14 23 -14z m-900 -16 c66 -20
129 -51 129 -64 0 -16 -70 -89 -92 -96 -19 -6 -20 -7 -4 -16 25 -14 94 33 102
70 3 15 7 31 8 37 5 18 111 -99 133 -145 28 -62 63 -192 63 -238 0 -54 -26
-147 -57 -205 -58 -106 -225 -215 -365 -239 -113 -18 -258 22 -346 98 -75 64
-149 222 -140 300 2 18 0 34 -4 34 -25 0 4 156 43 233 27 52 129 155 189 190
94 55 236 72 341 41z m4428 -531 c2 -1 -10 -15 -26 -30 -16 -15 -32 -34 -34
-42 -3 -9 -17 -1 -43 25 -35 35 -37 39 -20 49 10 5 27 20 39 32 l20 22 30 -27
c16 -15 32 -28 34 -29z m-2005 -144 c34 -40 34 -78 -1 -110 -16 -14 -75 -59
-133 -99 -371 -261 -667 -502 -946 -772 l-131 -127 -22 30 -22 30 47 57 c72
86 521 531 669 663 164 147 345 292 410 330 65 38 96 37 129 -2z m-1314 -40
c113 -6 216 -14 229 -18 22 -6 20 -10 -49 -86 -40 -44 -150 -172 -243 -285
-94 -113 -176 -211 -183 -219 -11 -13 -22 -10 -76 16 -103 50 -352 125 -541
163 l-57 11 47 62 c68 88 208 226 279 274 136 93 208 103 594 82z m4093 -428
c79 -31 183 -92 240 -143 58 -51 131 -172 151 -253 52 -197 -25 -428 -184
-554 -36 -28 -102 -70 -148 -92 -75 -38 -92 -42 -202 -51 -139 -12 -206 0
-319 56 -188 95 -269 239 -272 486 -2 182 33 273 153 405 68 74 139 122 228
153 57 20 80 22 180 19 88 -3 129 -9 173 -26z m-4873 -80 c250 -68 424 -135
437 -167 7 -18 -227 -259 -285 -296 -32 -20 -37 -20 -197 -8 -207 16 -394 9
-494 -20 -40 -11 -75 -19 -77 -17 -3 2 21 32 51 67 31 34 133 156 227 271 94
115 176 209 182 209 6 0 77 -18 156 -39z m3607 32 c-4 -3 -3 -11 3 -18 5 -6 6
-21 3 -34 -5 -19 -11 -22 -34 -17 -16 3 -31 1 -35 -6 -11 -18 -32 19 -26 47 3
19 9 24 22 20 10 -3 21 -1 25 5 3 5 16 10 27 10 12 0 18 -3 15 -7z m-4763 -99
c22 -8 20 -31 -3 -44 -28 -14 -31 -13 -31 13 0 34 8 41 34 31z m1724 -274 c35
-50 91 -120 124 -156 57 -61 61 -67 48 -87 -7 -12 -83 -101 -168 -199 l-155
-178 -68 0 c-155 0 -294 -34 -405 -101 -32 -19 -99 -76 -151 -126 -51 -51 -96
-93 -99 -93 -9 0 19 44 92 142 103 139 190 272 272 418 38 69 82 139 98 155
49 51 337 315 344 315 3 0 34 -41 68 -90z m1638 -162 c26 -25 45 -152 51 -329
10 -299 -29 -406 -219 -601 -115 -118 -196 -184 -208 -171 -4 5 -38 78 -75
163 -80 183 -108 236 -188 352 -52 76 -58 90 -46 104 15 18 523 446 572 482
34 25 88 25 113 0z m-1337 -180 c36 -40 41 -50 32 -67 -6 -11 -93 -97 -193
-192 l-182 -172 -38 44 c-20 24 -38 47 -38 50 0 3 21 28 48 55 26 27 108 113
181 192 74 78 137 141 141 140 3 -2 25 -24 49 -50z m414 -403 c48 -37 87 -73
87 -78 0 -24 -139 -275 -170 -307 -36 -37 -63 -50 -375 -181 -142 -60 -255
-126 -397 -235 -27 -20 -48 -32 -48 -27 0 5 37 51 81 103 127 149 217 290 234
368 4 19 27 70 51 115 68 127 55 129 -46 4 -14 -17 -19 -13 -77 71 l-61 90 61
49 c34 28 105 90 157 139 52 49 117 109 143 133 l49 43 111 -109 c62 -60 151
-140 200 -178z m157 50 c-7 -8 -22 -15 -34 -15 -21 1 -21 1 -2 15 27 21 53 20
36 0z m2179 -24 c15 -29 28 -40 53 -45 30 -6 31 -8 13 -18 -37 -20 -75 -62
-76 -82 0 -21 0 -21 -12 -1 -7 11 -30 36 -51 57 l-40 37 27 10 c15 6 34 26 44
46 9 19 18 35 20 35 1 0 11 -17 22 -39z m-3195 -140 c-71 -64 -291 -258 -319
-280 -39 -31 67 89 201 228 133 138 137 141 156 124 20 -18 19 -19 -38 -72z
m-961 55 c15 -12 17 -18 7 -36 -8 -14 -17 -19 -30 -15 -12 4 -22 0 -29 -12
-12 -23 -20 -14 -28 30 -5 33 -4 34 21 30 15 -3 26 -1 26 6 0 15 11 13 33 -3z
m6061 -25 c17 -19 17 -20 -3 -31 -28 -15 -39 -6 -33 25 5 30 13 31 36 6z
m-3841 -228 c39 -85 97 -229 97 -242 0 -11 -113 -85 -270 -179 -69 -41 -162
-99 -208 -129 -46 -30 -85 -53 -88 -51 -2 3 7 20 21 39 106 146 310 462 351
541 27 54 52 98 55 98 3 0 22 -35 42 -77z m1253 25 c27 -13 53 -33 59 -46 5
-12 15 -20 22 -18 14 6 50 -49 83 -124 19 -43 24 -73 25 -140 0 -77 -3 -92
-33 -152 -18 -36 -50 -82 -72 -102 -56 -51 -147 -94 -226 -106 -120 -19 -232
31 -305 136 -72 105 -91 249 -46 347 48 103 163 199 273 227 61 15 165 5 220
-22z m-3098 -170 c131 -49 291 -211 342 -346 60 -158 23 -358 -88 -483 -45
-51 -151 -119 -234 -151 -77 -30 -265 -37 -339 -13 -142 46 -246 136 -298 260
-31 72 -34 92 -38 197 -5 131 6 188 59 292 41 81 144 182 231 224 109 54 252
62 365 20z m4237 -90 c28 -6 73 -22 100 -36 52 -26 165 -108 165 -120 0 -4 14
-23 30 -42 34 -40 94 -150 105 -195 46 -186 -2 -365 -135 -506 -63 -66 -188
-139 -285 -164 -228 -59 -494 56 -592 257 -54 109 -64 167 -54 293 10 130 39
210 106 300 139 186 336 261 560 213z m960 -109 c61 -14 68 -22 27 -37 -43
-15 -91 -61 -100 -95 -5 -18 -12 -32 -18 -32 -5 0 -21 22 -36 49 -20 38 -38
56 -74 74 -52 27 -48 36 20 48 36 6 41 11 64 65 l26 58 18 -59 18 -59 55 -12z
m-4160 -503 c25 -18 13 -46 -20 -46 -25 0 -31 13 -19 44 7 20 15 20 39 2z
m-1985 -121 c-7 -8 -16 -15 -20 -15 -4 0 -10 7 -14 15 -4 11 2 15 21 15 21 0
24 -2 13 -15z m6251 -21 c87 -26 169 -127 184 -228 15 -94 -53 -219 -144 -266
-51 -25 -140 -40 -184 -30 -71 16 -159 89 -189 157 -49 112 -13 249 86 324 80
60 148 72 247 43z m-2461 -139 c0 -9 8 -14 21 -12 14 1 23 -4 24 -15 2 -10 -3
-18 -10 -18 -7 0 -19 -9 -26 -21 l-14 -21 -27 22 c-27 21 -27 21 -8 40 11 11
20 25 20 30 0 6 5 10 10 10 6 0 10 -7 10 -15z m-2170 -205 c0 -7 7 -7 21 1 31
16 44 -2 26 -36 -10 -20 -23 -28 -45 -30 -34 -3 -49 18 -37 55 6 20 35 28 35
10z m-1422 -35 c2 -2 -8 -15 -22 -30 -21 -23 -28 -26 -41 -15 -19 16 -19 29 1
51 15 17 37 14 62 -6z"/>
<path d="M6110 6728 c0 -9 -18 -39 -40 -67 -39 -50 -40 -51 -16 -51 13 0 38
13 56 30 32 30 34 47 9 90 -7 13 -8 13 -9 -2z"/>
<path d="M6346 6203 c-6 -14 -5 -15 5 -6 7 7 10 15 7 18 -3 3 -9 -2 -12 -12z"/>
<path d="M6281 6117 l-55 -62 48 45 c39 37 75 82 64 79 -2 0 -28 -28 -57 -62z"/>
<path d="M5923 6023 c9 -2 25 -2 35 0 9 3 1 5 -18 5 -19 0 -27 -2 -17 -5z"/>
<path d="M5998 6013 c7 -3 16 -2 19 1 4 3 -2 6 -13 5 -11 0 -14 -3 -6 -6z"/>
<path d="M6063 6003 c9 -2 25 -2 35 0 9 3 1 5 -18 5 -19 0 -27 -2 -17 -5z"/>
<path d="M2766 5804 c-10 -14 -32 -34 -50 -45 -25 -15 -27 -19 -11 -19 36 0
85 37 85 65 0 31 0 31 -24 -1z"/>
<path d="M4290 4644 c-50 -18 -100 -53 -144 -99 -107 -113 -102 -305 12 -407
69 -63 97 -73 197 -73 105 0 158 20 224 86 150 150 119 383 -64 476 -63 33
-160 40 -225 17z"/>
<path d="M3770 4094 c-153 -66 -188 -270 -64 -372 87 -72 173 -78 261 -19 101
68 134 210 70 306 -38 57 -117 101 -182 101 -27 -1 -66 -8 -85 -16z m-70 -184
c0 -31 -16 -41 -26 -15 -8 19 2 45 16 45 5 0 10 -13 10 -30z"/>
<path d="M3849 3013 l-24 -28 28 24 c25 23 32 31 24 31 -2 0 -14 -12 -28 -27z"/>
<path d="M2802 4488 c6 -18 28 -21 28 -4 0 9 -7 16 -16 16 -9 0 -14 -5 -12
-12z"/>
<path d="M1346 1375 c-9 -14 -31 -35 -49 -45 -39 -24 -21 -26 28 -3 21 10 38
27 42 40 8 34 -2 38 -21 8z"/>
<path d="M5620 1295 c-7 -8 -9 -22 -6 -31 5 -13 9 -14 21 -4 16 13 21 50 6 50
-5 0 -14 -7 -21 -15z"/>
<path d="M2074 6985 c25 -19 42 -19 50 0 4 12 -3 15 -32 15 -35 -1 -36 -2 -18
-15z"/>
<path d="M451 5335 c-11 -25 -25 -45 -30 -45 -6 0 -11 -4 -11 -10 0 -20 29 -9
54 21 26 31 34 63 17 74 -6 3 -19 -15 -30 -40z"/>
<path d="M270 4605 c0 -5 69 -43 103 -57 38 -16 4 13 -43 37 -50 25 -60 29
-60 20z"/>
<path d="M216 4465 l-17 -26 38 7 c41 7 56 14 30 14 -9 0 -20 7 -25 16 -7 13
-11 12 -26 -11z"/>
<path d="M6755 3930 c-22 -4 -35 -8 -30 -9 6 -1 1 -8 -9 -16 -27 -21 0 -20 39
1 19 10 43 14 64 10 31 -5 32 -4 15 9 -21 16 -20 16 -79 5z"/>
<path d="M6906 3882 c25 -23 83 -52 88 -44 3 5 -18 18 -46 30 -29 12 -48 18
-42 14z"/>
<path d="M185 2371 c-9 -29 -68 -83 -132 -119 -59 -34 -49 -35 41 -4 62 21
116 70 116 105 0 32 -16 44 -25 18z"/>
<path d="M90 1626 c77 -30 70 -29 70 -12 0 8 -16 16 -42 20 -24 3 -54 8 -68
11 -14 3 4 -6 40 -19z"/>
<path d="M3146 711 c-11 -15 -31 -36 -45 -44 l-26 -16 25 -1 c39 0 72 31 68
63 l-3 27 -19 -29z"/>
</g>
</svg>
